<svg xmlns="http://www.w3.org/2000/svg" width="134" height="138" fill="none" viewBox="0 0 134 138"><g filter="url(#filter0_d_307_2)"><path fill="#818181" d="M28.375 0H109.625C113.935 0 118.068 1.71205 121.115 4.75952C124.163 7.80698 125.875 11.9402 125.875 16.25V113.75C125.875 118.06 124.163 122.193 121.115 125.24C118.068 128.288 113.935 130 109.625 130H28.375C24.0652 130 19.932 128.288 16.8845 125.24C13.837 122.193 12.125 118.06 12.125 113.75V105.625H20.25V113.75C20.25 115.905 21.106 117.972 22.6298 119.495C24.1535 121.019 26.2201 121.875 28.375 121.875H109.625C111.78 121.875 113.847 121.019 115.37 119.495C116.894 117.972 117.75 115.905 117.75 113.75V16.25C117.75 14.0951 116.894 12.0285 115.37 10.5048C113.847 8.98102 111.78 8.125 109.625 8.125H28.375C26.2201 8.125 24.1535 8.98102 22.6298 10.5048C21.106 12.0285 20.25 14.0951 20.25 16.25V24.375H12.125V16.25C12.125 11.9402 13.837 7.80698 16.8845 4.75952C19.932 1.71205 24.0652 0 28.375 0V0Z"/><path fill="#818181" d="M12.125 40.625V36.5625C12.125 35.4851 12.553 34.4517 13.3149 33.6899C14.0767 32.928 15.1101 32.5 16.1875 32.5C17.2649 32.5 18.2983 32.928 19.0601 33.6899C19.822 34.4517 20.25 35.4851 20.25 36.5625V40.625H24.3125C25.3899 40.625 26.4233 41.053 27.1851 41.8149C27.947 42.5767 28.375 43.6101 28.375 44.6875C28.375 45.7649 27.947 46.7983 27.1851 47.5601C26.4233 48.322 25.3899 48.75 24.3125 48.75H8.0625C6.98506 48.75 5.95175 48.322 5.18988 47.5601C4.42801 46.7983 4 45.7649 4 44.6875C4 43.6101 4.42801 42.5767 5.18988 41.8149C5.95175 41.053 6.98506 40.625 8.0625 40.625H12.125ZM12.125 65V60.9375C12.125 59.8601 12.553 58.8267 13.3149 58.0649C14.0767 57.303 15.1101 56.875 16.1875 56.875C17.2649 56.875 18.2983 57.303 19.0601 58.0649C19.822 58.8267 20.25 59.8601 20.25 60.9375V65H24.3125C25.3899 65 26.4233 65.428 27.1851 66.1899C27.947 66.9517 28.375 67.9851 28.375 69.0625C28.375 70.1399 27.947 71.1733 27.1851 71.9351C26.4233 72.697 25.3899 73.125 24.3125 73.125H8.0625C6.98506 73.125 5.95175 72.697 5.18988 71.9351C4.42801 71.1733 4 70.1399 4 69.0625C4 67.9851 4.42801 66.9517 5.18988 66.1899C5.95175 65.428 6.98506 65 8.0625 65H12.125ZM12.125 89.375V85.3125C12.125 84.2351 12.553 83.2017 13.3149 82.4399C14.0767 81.678 15.1101 81.25 16.1875 81.25C17.2649 81.25 18.2983 81.678 19.0601 82.4399C19.822 83.2017 20.25 84.2351 20.25 85.3125V89.375H24.3125C25.3899 89.375 26.4233 89.803 27.1851 90.5649C27.947 91.3267 28.375 92.3601 28.375 93.4375C28.375 94.5149 27.947 95.5483 27.1851 96.3101C26.4233 97.072 25.3899 97.5 24.3125 97.5H8.0625C6.98506 97.5 5.95175 97.072 5.18988 96.3101C4.42801 95.5483 4 94.5149 4 93.4375C4 92.3601 4.42801 91.3267 5.18988 90.5649C5.95175 89.803 6.98506 89.375 8.0625 89.375H12.125Z"/><path fill="#818181" d="M97 79.8438C97 82.625 96.4688 85.2344 95.4062 87.6719C94.3438 90.1094 92.8906 92.25 91.0469 94.0938C89.2344 95.9062 87.1094 97.3438 84.6719 98.4062C82.2344 99.4688 79.625 100 76.8438 100H43.2344V32.7812H76.8438C79.625 32.7812 82.2344 33.3125 84.6719 34.375C87.1094 35.4375 89.2344 36.8906 91.0469 38.7344C92.8906 40.5469 94.3438 42.6719 95.4062 45.1094C96.4688 47.5469 97 50.1562 97 52.9375C97 54.1875 96.8281 55.4688 96.4844 56.7812C96.1406 58.0938 95.6562 59.3594 95.0312 60.5781C94.4062 61.7969 93.6562 62.9062 92.7812 63.9062C91.9062 64.9062 90.9375 65.7344 89.875 66.3906C90.9688 66.9844 91.9531 67.7969 92.8281 68.8281C93.7031 69.8281 94.4531 70.9375 95.0781 72.1562C95.7031 73.375 96.1719 74.6562 96.4844 76C96.8281 77.3125 97 78.5938 97 79.8438ZM56.6875 86.5469H76.8438C77.7812 86.5469 78.6562 86.375 79.4688 86.0312C80.2812 85.6875 80.9844 85.2188 81.5781 84.625C82.2031 84 82.6875 83.2812 83.0312 82.4688C83.375 81.6562 83.5469 80.7812 83.5469 79.8438C83.5469 78.9062 83.375 78.0312 83.0312 77.2188C82.6875 76.4062 82.2031 75.7031 81.5781 75.1094C80.9844 74.4844 80.2812 74 79.4688 73.6562C78.6562 73.3125 77.7812 73.1406 76.8438 73.1406H56.6875V86.5469ZM56.6875 59.6875H76.8438C77.7812 59.6875 78.6562 59.5156 79.4688 59.1719C80.2812 58.8281 80.9844 58.3594 81.5781 57.7656C82.2031 57.1406 82.6875 56.4219 83.0312 55.6094C83.375 54.7656 83.5469 53.875 83.5469 52.9375C83.5469 52 83.375 51.125 83.0312 50.3125C82.6875 49.5 82.2031 48.7969 81.5781 48.2031C80.9844 47.5781 80.2812 47.0938 79.4688 46.75C78.6562 46.4062 77.7812 46.2344 76.8438 46.2344H56.6875V59.6875Z"/></g><defs><filter id="filter0_d_307_2" width="138" height="138" x="0" y="0" color-interpolation-filters="sRGB" filterUnits="userSpaceOnUse"><feFlood flood-opacity="0" result="BackgroundImageFix"/><feColorMatrix in="SourceAlpha" result="hardAlpha" type="matrix" values="0 0 0 0 0 0 0 0 0 0 0 0 0 0 0 0 0 0 127 0"/><feOffset dy="4"/><feGaussianBlur stdDeviation="2"/><feComposite in2="hardAlpha" operator="out"/><feColorMatrix type="matrix" values="0 0 0 0 0 0 0 0 0 0 0 0 0 0 0 0 0 0 0.25 0"/><feBlend in2="BackgroundImageFix" mode="normal" result="effect1_dropShadow_307_2"/><feBlend in="SourceGraphic" in2="effect1_dropShadow_307_2" mode="normal" result="shape"/></filter></defs></svg>