<svg xmlns="http://www.w3.org/2000/svg" xmlns:xlink="http://www.w3.org/1999/xlink" id="Capa_1" x="0" y="0" version="1.1" viewBox="0 0 60 60" xml:space="preserve" style="enable-background:new 0 0 60 60"><g><path style="fill:#424a60" d="M24,35v-0.375V34.25v-8.625V25.25h0.034C24.013,25.374,24,25.499,24,25.625 c0-2.437,3.862-4.552,9.534-5.625H3.608C1.616,20,0,21.615,0,23.608v11.783C0,37.385,1.616,39,3.608,39H24V35z"/></g><g><path style="fill:#556080" d="M24.034,53H24v-9v-0.375V43.25V39H3.608C1.616,39,0,40.615,0,42.608v11.783 C0,56.385,1.616,58,3.608,58h28.718C27.601,56.931,24.378,55.103,24.034,53z"/></g><path style="fill:#556080" d="M54.392,20H3.608C1.616,20,0,18.384,0,16.392V4.608C0,2.616,1.616,1,3.608,1h50.783	C56.384,1,58,2.616,58,4.608v11.783C58,18.384,56.384,20,54.392,20z"/><circle style="fill:#7383bf" cx="9.5" cy="10.5" r="3.5"/><circle style="fill:#7383bf" cx="49" cy="9" r="1"/><circle style="fill:#7383bf" cx="45" cy="9" r="1"/><circle style="fill:#7383bf" cx="51" cy="12" r="1"/><circle style="fill:#7383bf" cx="47" cy="12" r="1"/><circle style="fill:#7383bf" cx="41" cy="9" r="1"/><circle style="fill:#7383bf" cx="43" cy="12" r="1"/><circle style="fill:#7383bf" cx="37" cy="9" r="1"/><circle style="fill:#7383bf" cx="39" cy="12" r="1"/><circle style="fill:#7383bf" cx="33" cy="9" r="1"/><circle style="fill:#7383bf" cx="35" cy="12" r="1"/><circle style="fill:#7383bf" cx="9.5" cy="29.5" r="3.5"/><circle style="fill:#7383bf" cx="9.5" cy="48.5" r="3.5"/><g><path style="fill:#1a9172" d="M42,48.75c-9.941,0-18-2.854-18-6.375V53h0.034c0.548,3.346,8.381,6,17.966,6s17.418-2.654,17.966-6 H60V42.375C60,45.896,51.941,48.75,42,48.75z"/><path style="fill:#1a9172" d="M24,42v0.375c0-0.126,0.013-0.251,0.034-0.375H24z"/><path style="fill:#1a9172" d="M59.966,42C59.987,42.124,60,42.249,60,42.375V42H59.966z"/></g><g><path style="fill:#25ae88" d="M42,38c-9.941,0-18-2.854-18-6.375V42.75h0.034c0.548,3.346,8.381,6,17.966,6s17.418-2.654,17.966-6 H60V31.625C60,35.146,51.941,38,42,38z"/><path style="fill:#25ae88" d="M24,31.25v0.375c0-0.126,0.013-0.251,0.034-0.375H24z"/><path style="fill:#25ae88" d="M59.966,31.25C59.987,31.374,60,31.499,60,31.625V31.25H59.966z"/></g><ellipse style="fill:#88c057" cx="42" cy="21.375" rx="18" ry="6.375"/><g><path style="fill:#61b872" d="M42,27.75c-9.941,0-18-2.854-18-6.375V32h0.034c0.548,3.346,8.381,6,17.966,6s17.418-2.654,17.966-6 H60V21.375C60,24.896,51.941,27.75,42,27.75z"/><path style="fill:#61b872" d="M24,21v0.375c0-0.126,0.013-0.251,0.034-0.375H24z"/><path style="fill:#61b872" d="M59.966,21C59.987,21.124,60,21.249,60,21.375V21H59.966z"/></g></svg>