<svg xmlns="http://www.w3.org/2000/svg" width="128" height="135" fill="none" viewBox="0 0 128 135"><g filter="url(#filter0_d_306_2)"><path fill="#818181" d="M114.05 13.9C114.022 13.9 114 13.8773 114 13.8497C113.973 7.2731 108.683 2 102.1 2H25.9C19.3 2 14 7.3 14 13.9V114.2C14 120.8 19.3 126.1 25.9 126.1H102.2C108.8 126.1 114.1 120.8 114.1 114.2V13.95C114.1 13.9224 114.078 13.9 114.05 13.9V13.9ZM110.05 14.15C110.041 14.1224 110 14.129 110 14.1581V113.3C110 118 106.5 122 101.8 122H26.5C21.8 122 18 118 18 113.3V14C18 9.3 21.9 6 26.5 6H101.7C106.347 6 110.016 9.51914 110.099 14.1412C110.099 14.1703 110.059 14.1776 110.05 14.15V14.15Z"/><path fill="#818181" d="M78.0835 30.4521C78.6481 32.5975 76.7694 34.5924 74.594 34.1573L53.0213 29.8428C50.5384 29.3462 49.7494 26.1868 51.7074 24.5812L68.3675 10.9199C70.0121 9.57137 72.4988 10.3149 73.1332 12.3449L74.3066 16.0999L78.0835 30.4521Z"/><path fill="#818181" d="M50.986 41.0837C50.9932 39.4329 52.3337 38.0999 53.9844 38.0999H77.2C78.8569 38.0999 80.2 39.443 80.2 41.0999V45.0999V57.0999V78.5V113C80.2 114.657 78.8568 116 77.2 116H63.1H54C52.3431 116 51 114.657 51 113V78.5V69.8081C51 66.6424 50.9614 47.5563 50.9728 44.3906C50.9772 43.1784 50.9818 42.0451 50.986 41.0837Z"/></g><defs><filter id="filter0_d_306_2" width="136" height="136" x="-4" y="0" color-interpolation-filters="sRGB" filterUnits="userSpaceOnUse"><feFlood flood-opacity="0" result="BackgroundImageFix"/><feColorMatrix in="SourceAlpha" result="hardAlpha" type="matrix" values="0 0 0 0 0 0 0 0 0 0 0 0 0 0 0 0 0 0 127 0"/><feOffset dy="4"/><feGaussianBlur stdDeviation="2"/><feComposite in2="hardAlpha" operator="out"/><feColorMatrix type="matrix" values="0 0 0 0 0 0 0 0 0 0 0 0 0 0 0 0 0 0 0.25 0"/><feBlend in2="BackgroundImageFix" mode="normal" result="effect1_dropShadow_306_2"/><feBlend in="SourceGraphic" in2="effect1_dropShadow_306_2" mode="normal" result="shape"/></filter></defs></svg>