<?xml version="1.0" encoding="UTF-8"?>
<!-- Generator: Adobe Illustrator 21.0.0, SVG Export Plug-In . SVG Version: 6.00 Build 0)  -->
<svg version="1.1" id="Layer_1" xmlns="http://www.w3.org/2000/svg" xmlns:xlink="http://www.w3.org/1999/xlink" x="0px" y="0px" viewBox="0 0 512 512" style="enable-background:new 0 0 512 512;" xml:space="preserve">
<style type="text/css">
	.st0{opacity:0.3;enable-background:new    ;}
	.st1{fill:url(#tube_3_);}
	.st2{fill:url(#liquid_2_);}
	.st3{fill:#333333;}
	.st4{opacity:0.3;fill:#FFFFFF;enable-background:new    ;}
	.st5{opacity:0.5;fill:#FFFFFF;enable-background:new    ;}
	.st6{display:none;}
	.st7{display:inline;}
	.st8{opacity:0.1;enable-background:new    ;}
	.st9{fill:url(#tube_4_);}
	.st10{fill:url(#liquid_3_);}
</style>
<g id="logo-bg-dark">
	<g id="test-tube">
		<path id="shadow_2_" class="st0" d="M272,13.5c-0.2,0.9-0.2,1.9,0,2.9c0,0,3.1,20.5-0.4,29.6l-149,387.5l0,0    c-10.6,28.5,3.6,60.2,32,71.2c28.4,10.9,60.3-3.1,71.5-31.4l0,0l149-387.5c2.9-7.6,19.5-22.3,19.5-22.3c0.8-0.6,1.5-1.4,1.9-2.2    l0.1-0.2c0.1-0.2,0.2-0.3,0.2-0.5c3.8-10-20.9-28.8-55.4-42.1c-34.4-13.2-65.4-15.9-69.3-5.9c-0.1,0.2-0.1,0.3-0.2,0.5L272,13.5z"/>
		
			<linearGradient id="tube_3_" gradientUnits="userSpaceOnUse" x1="236.5686" y1="236.6643" x2="331.0048" y2="142.2281" gradientTransform="matrix(0.9138 -0.4062 -0.4062 -0.9138 61.3835 546.8604)">
			<stop offset="0" style="stop-color:#919191"/>
			<stop offset="1" style="stop-color:#FFFFFF"/>
		</linearGradient>
		<path id="tube_2_" class="st1" d="M267.7,10.2c-0.2,0.9-0.2,1.9,0,2.9c0,0,3.1,20.5-0.4,29.6l-149,387.5l0,0    c-10.6,28.5,3.6,60.2,32,71.2c28.4,10.9,60.3-3.1,71.5-31.4l0,0l149-387.5c2.9-7.6,19.5-22.3,19.5-22.3c0.8-0.6,1.5-1.4,1.9-2.2    l0.1-0.2c0.1-0.2,0.2-0.3,0.2-0.5c3.8-10-20.9-28.8-55.4-42.1c-34.4-13.2-65.4-15.9-69.3-5.9c-0.1,0.2-0.1,0.3-0.2,0.5L267.7,10.2    z"/>
		
			<linearGradient id="liquid_2_" gradientUnits="userSpaceOnUse" x1="201.0596" y1="164.6226" x2="258.2314" y2="107.4509" gradientTransform="matrix(0.9138 -0.4062 -0.4062 -0.9138 61.3835 546.8604)">
			<stop offset="0" style="stop-color:#990000"/>
			<stop offset="1" style="stop-color:#E80000"/>
		</linearGradient>
		<path id="liquid" class="st2" d="M314.5,185.6L207,465l0.1,0c-7.9,20-31,30.5-51.5,22.6c-20.5-7.9-31.5-31.4-24-51.6l0,0    l68.7-178.6c0,0,8.6-13.8,25.4-23.7c16.8-9.8,30.7-7.8,49.4-16.1C293.8,209.4,314.5,185.6,314.5,185.6z"/>
		
			<ellipse id="top" transform="matrix(0.359 -0.9333 0.9333 0.359 179.2066 330.0465)" class="st3" cx="329.9" cy="34.6" rx="10.9" ry="41.4"/>
		<path id="side-reflection" class="st4" d="M267.7,13.2c0,0,3,20.6-0.4,29.6l-149,387.5l0,0c-10.6,28.5,3.6,60.2,32,71.2    c4.9,1.9,10,3,15,3.5c-19.2-14.4-27.4-40.2-18.6-63.7l0,0L292.7,61.4C292.7,61.4,272.9,42.7,267.7,13.2z"/>
		<g id="bubbles">
			<circle class="st5" cx="219.7" cy="263.2" r="4.3"/>
			<circle class="st5" cx="248" cy="294.5" r="6.5"/>
			<circle class="st5" cx="204.8" cy="331.7" r="12.2"/>
			<circle class="st5" cx="185" cy="354.3" r="6.5"/>
			<circle class="st5" cx="211" cy="402.6" r="4.3"/>
		</g>
	</g>
</g>
<g id="logo-bg-light" class="st6">
	<g id="test-tube_1_" class="st7">
		<path id="shadow_1_" class="st8" d="M269,59.2c-0.2,0.7-0.2,1.5,0,2.4c0,0,2.5,16.6-0.3,24l-121,314.6l0,0    c-8.6,23.1,2.9,48.9,26,57.8c23.1,8.9,49-2.5,58-25.5l0,0l121-314.6c2.4-6.2,15.9-18.1,15.9-18.1c0.7-0.5,1.2-1.1,1.6-1.8l0.1-0.1    c0.1-0.1,0.1-0.3,0.2-0.4c3.1-8.1-17-23.4-45-34.2c-27.9-10.7-53.1-12.9-56.3-4.8c-0.1,0.1-0.1,0.3-0.1,0.4L269,59.2z"/>
		
			<linearGradient id="tube_4_" gradientUnits="userSpaceOnUse" x1="247.7444" y1="227.2708" x2="324.4154" y2="150.5997" gradientTransform="matrix(0.9138 -0.4062 -0.4062 -0.9138 61.3835 546.8604)">
			<stop offset="0" style="stop-color:#919191"/>
			<stop offset="1" style="stop-color:#FFFFFF"/>
		</linearGradient>
		<path id="tube_1_" class="st9" d="M265.5,56.5c-0.2,0.7-0.2,1.5,0,2.4c0,0,2.5,16.6-0.3,24l-121,314.6l0,0    c-8.6,23.1,2.9,48.9,26,57.8c23.1,8.9,49-2.5,58-25.5l0,0l121-314.6c2.4-6.2,15.9-18.1,15.9-18.1c0.7-0.5,1.2-1.1,1.6-1.8l0.1-0.1    c0.1-0.1,0.1-0.3,0.2-0.4c3.1-8.1-17-23.4-45-34.2c-27.9-10.7-53.1-12.9-56.3-4.8c-0.1,0.1-0.1,0.3-0.1,0.4L265.5,56.5z"/>
		
			<linearGradient id="liquid_3_" gradientUnits="userSpaceOnUse" x1="218.9152" y1="168.7814" x2="265.3319" y2="122.3647" gradientTransform="matrix(0.9138 -0.4062 -0.4062 -0.9138 61.3835 546.8604)">
			<stop offset="0" style="stop-color:#990000"/>
			<stop offset="1" style="stop-color:#E80000"/>
		</linearGradient>
		<path id="liquid_1_" class="st10" d="M303.5,198.8l-87.3,226.9l0.1,0c-6.4,16.3-25.2,24.7-41.8,18.3    c-16.6-6.4-25.6-25.5-19.5-41.9l0,0l55.8-145c0,0,7-11.2,20.6-19.2c13.7-8,24.9-6.3,40.1-13.1    C286.7,218.2,303.5,198.8,303.5,198.8z"/>
		
			<ellipse id="top_1_" transform="matrix(0.359 -0.9333 0.9333 0.359 131.4165 343.7771)" class="st3" cx="316" cy="76.2" rx="8.9" ry="33.6"/>
		<path id="side-reflection_1_" class="st4" d="M265.5,58.8c0,0,2.5,16.7-0.3,24l-121,314.6l0,0c-8.6,23.1,2.9,48.9,26,57.8    c4,1.5,8.1,2.5,12.2,2.8c-15.6-11.7-22.2-32.6-15.1-51.7l0,0L285.8,98C285.8,98,269.7,82.8,265.5,58.8z"/>
		<g id="bubbles_1_">
			<circle class="st5" cx="226.5" cy="261.8" r="3.5"/>
			<circle class="st5" cx="249.5" cy="287.2" r="5.3"/>
			<circle class="st5" cx="214.4" cy="317.5" r="9.9"/>
			<circle class="st5" cx="198.4" cy="335.8" r="5.3"/>
			<circle class="st5" cx="219.4" cy="375" r="3.5"/>
		</g>
	</g>
</g>
</svg>