<svg xmlns="http://www.w3.org/2000/svg" viewBox="0 0 128 128"><defs><linearGradient id="processing-original-a" x1="64" x2="64" y1="169" y2="297" gradientTransform="translate(-.555 -2.02) scale(1.0087)" gradientUnits="userSpaceOnUse"><stop offset="0" stop-color="#fff" stop-opacity=".918"/><stop offset="1" stop-color="#fff" stop-opacity=".559"/></linearGradient></defs><g transform="translate(0 -169)"><circle cx="64" cy="233" r="64"/><path fill="#6e8375" stroke="#123859" d="M55.017 180.15l23.042 11.422"/><path fill="#6e8375" stroke="#fff" stroke-width=".5" d="M67.823 186.63l9.13 4.585"/><path fill="none" stroke="#152e44" stroke-width=".65" d="M7.21 220.26l31.684 20.902"/><path fill="none" stroke="#e5b828" stroke-width=".5" d="M4.1 211.87c2.005 2.786 8.338 10.643 10.64 12.985"/><path fill="#0f212e" stroke="#1b344c" stroke-width=".3" d="M126.79 222.99l-19.683 5.138"/><path fill="none" stroke="#326a9c" d="M124.68 212.54l-20.638 28.575-12.435-29.633" style="font-variation-settings:normal"/><path fill="none" stroke="#e5b828" stroke-width=".514" d="M89.88 208.57l12.521 30.631"/><path fill="#1b344b" stroke="#326a9c" stroke-width=".6" d="M73.966 274.73l29.334-33.297"/><path fill="#326a9c" stroke="#326a9c" stroke-width=".8" d="M83.873 249.96l15.214 25.532" style="font-variation-settings:normal"/><path fill="none" stroke="#19344e" stroke-width=".6" d="M85.53 293.66l-11.383-18.655"/><g fill="#0a2035"><g stroke="#0a2035"><path stroke-width=".8" d="M99.086 275.49l-24.672 10.385" style="font-variation-settings:normal"/><path stroke-width=".4" d="M62.045 291.24l12.369-5.358" style="font-variation-settings:normal"/><path stroke-width=".8" d="M106.89 280.52l-7.938-4.366" style="-inkscape-stroke:none;font-variation-settings:normal"/></g><path stroke="#10273c" stroke-width=".8" d="M99.219 275.63l22.357-51.197" style="-inkscape-stroke:none;font-variation-settings:normal"/></g><g fill="none"><path stroke="#152e44" stroke-width=".64" d="M38.633 242.29l-19.785 27.853"/><path stroke="#152e44" stroke-width=".8" d="M18.785 236.27l19.645 4.763"/><g stroke-width=".5"><path stroke="#6e8475" d="M21.799 235.57l13.135 37.394"/><path stroke="#d0d0d0" d="M11.462 269.19l10.355-34.267"/><path stroke="#33526d" d="M35.438 273.13l-3.745-36.947"/></g><path stroke="#152e44" stroke-width=".65" d="M18.19 214.77l20.968 26.26"/><path stroke="#0c2135" stroke-width=".61" d="M6.548 224.36l12.568 11.245"/><path stroke="#e5b828" stroke-width=".5" d="M.356 230.58l25.335-8.695"/><path stroke="#d0d0d0" stroke-width=".5" d="M.277 230.18l29.065-10.038"/><path stroke="#e5b828" stroke-width=".6" d="M22.414 234.23l6.608-13.51-6.608 13.51"/><path stroke="#d0d0d0" stroke-width=".5" d="M3.857 212.07L21.8 234.45"/><path stroke="#d9d9d9" stroke-width=".5" d="M29.292 220.23l6.034 50.333"/></g><path fill="#6e8375" stroke="#3c5b75" stroke-width=".5" d="M35.885 273.97v.447L22.973 237.47"/><g fill="none"><g stroke="#152e44"><path stroke-width=".65" d="M38.894 241.5l3.44 15.081"/><path stroke-width=".55" d="M42.598 256.84l2.249 9.459 5.564 29.052M39.291 241.89l32.676-8.07"/></g><path stroke="#19344e" stroke-width=".748" d="M43.903 236.08l29.998 38.439"/></g><path fill="#fff" d="M41.894 272.75v-5.345c2.99-.41 5.751-1.094 9.02-1.17v-41.26c-3.68-.062-7.144-.87-8.886-1.47v-5.13l18.472-.155v48.074c2.559-.185 6.013.705 9.142 1.205v5.268z"/><path fill="none" stroke="#081a26" stroke-width=".714" d="M61.78 183.95l7.938 33.734"/><path fill="#6e8375" stroke="#0f2c48" stroke-width=".5" d="M114.95 204.66l-28.507-9.307"/><path fill="#fff" d="M61.752 205.58l.4-11.877c5.627-3.227 25.472-5.534 27.589 7.959.713 4.546 1.198 12.097-9.96 17.833 8.64 2.334 11.528 7.893 11.628 13.363.236 12.844-12.233 20.698-23.456 19.444l.084-6.482c9.937 1.14 14.763-5.336 14.978-11.42.22-6.236-5.241-10.537-14.978-10.346l-.15-6.096c12.189-.904 15.623-9.344 14.105-14.031-2.078-6.419-8.71-7.604-14.573-5.346l-1.003 7.15z"/><g fill="none"><path stroke="#19344e" stroke-width=".95" d="M93.511 289.92l-17.575-13.9"/><g stroke="#0b1620"><path stroke-width=".5" d="M61.453 233.83l8.824-.189"/><path stroke-width=".748" d="M61.946 229.52l8.235 2.712"/><path stroke-width=".713" d="M71.206 224.74l1.178 6.098"/><path stroke-width=".348" d="M77.314 227.18l-2.9 3.835"/><path stroke-width=".248" d="M74.04 232.84l4.022-4.911"/><path stroke-width=".348" d="M75.911 232.42l5.66-1.216"/></g><path stroke="#0c2135" stroke-width=".825" d="M9.027 252.87l9.76-16.54"/><path stroke="#0c2135" stroke-width=".41" d="M18.661 237.78l-2.926 16.75"/><path stroke="#e5b828" stroke-width=".4" d="M-.01 236.01l21.698-1.44"/><path stroke="#78a657" stroke-width=".5" d="M.299 236.4l19.18-1.231"/><path stroke="#0c2135" stroke-width=".31" d="M4.53 210.06l10.42 3.121"/><path stroke="#081725" stroke-width=".31" d="M17.132 215.1l1.323 11.642"/><path stroke="#0f2c48" stroke-width=".714" d="M84.961 218.08l19.899-26.271"/><g stroke="#123859"><path stroke-width=".814" d="M84.205 193.41l7.604-11.64"/><path stroke-dasharray="6.512 .814" stroke-width=".814" d="M65.484 181.96l29.567 1.852"/><path stroke-dasharray="2.088 2.088" stroke-width=".348" d="M62.437 182.2l4.716.268"/><path stroke-width=".714" d="M61.383 181.7l-33.999 23.945"/></g><path stroke="#e5b828" stroke-width=".714" d="M53.715 179.4l14.086 7.21"/><path stroke="#e5b828" stroke-width=".314" d="M53.38 179.17l-22.246 37.729"/><path stroke="#d0d0d0" stroke-width=".514" d="M29.289 220.57l19.03-31.926"/><path stroke="#081a26" stroke-width=".714" d="M55.959 175.48l6.218 6.085"/><path stroke="#173149" stroke-width=".714" d="M68.6 174.94l-6.692 7.201"/></g><path fill="#6e8375" stroke="#fff" stroke-width=".7" d="M115.06 204.05l-28.479-9.139"/><path fill="#6e8375" stroke="#11385e" stroke-width=".6" d="M27.153 278.09l9.21-3.439"/><g fill="none"><g stroke-width=".714"><path stroke="#d9d9d9" d="M36.332 274.98l7.56-38.65M36.113 275.19l36.551-.329"/><path stroke="#e5b828" d="M46.754 171.64l7.087 7.607"/></g><path stroke="#123859" stroke-width=".514" d="M52.455 181.45l-4.248 7.378"/></g><path fill="#06111b" stroke="#e5b828" stroke-width=".514" d="M54.386 179.56l29.857-6.666"/><g fill="none"><path stroke="#e5b828" stroke-width=".4" d="M6.627 205l19.38 13.084"/><path stroke="#d0d0d0" stroke-width=".4" d="M6.65 204.61l22.598 15.217"/><g stroke-width=".5"><path stroke="#79a6cc" d="M11.857 269.27l8.853-29.445"/><path stroke="#fff" d="M21.778 234.65l21.857 1.265"/><path stroke="#32556e" d="M21.975 235.09l20.296 1.255"/><path stroke="#e5b828" d="M15.162 225.42l6.581 8.589"/><path stroke="#fff" d="M14.7 225.62l7.21 8.943"/></g></g><g fill="#6e8375"><path stroke="#405c74" stroke-width=".5" d="M29.609 220.46l14.03 14.756"/><path stroke="#fff" stroke-width=".6" d="M43.518 235.97l-14.174-15.013"/><path stroke="#c4c32d" stroke-width=".6" d="M21.274 280.9l13.309-4.953"/></g><path fill="#0f212e" stroke="#11385e" stroke-width=".3" d="M78.811 241.49l-4.11-6.561"/><circle cx="64" cy="233" r="61.336" fill="none" stroke="url(#processing-original-a)" stroke-width="5.328"/></g></svg>