<svg xmlns="http://www.w3.org/2000/svg" width="175" height="175" fill="none" viewBox="0 0 175 175"><circle cx="87.5" cy="87.5" r="81" fill="#000" stroke="red" stroke-width="3"/><path fill="#fff" fill-opacity=".08" d="M119.793 131H54.7539L90.6133 63.793H54.7539V46.9766H119.793L84.0508 114.184H119.793V131Z"/><path fill="red" d="M119.793 131V133H121.793V131H119.793ZM54.7539 131L52.9894 130.059L51.4199 133H54.7539V131ZM90.6133 63.793L92.3778 64.7345L93.9473 61.793H90.6133V63.793ZM54.7539 63.793H52.7539V65.793H54.7539V63.793ZM54.7539 46.9766V44.9766H52.7539V46.9766H54.7539ZM119.793 46.9766L121.559 47.9157L123.122 44.9766H119.793V46.9766ZM84.0508 114.184L82.285 113.244L80.7219 116.184H84.0508V114.184ZM119.793 114.184H121.793V112.184H119.793V114.184ZM119.793 129H54.7539V133H119.793V129ZM56.5184 131.941L92.3778 64.7345L88.8487 62.8515L52.9894 130.059L56.5184 131.941ZM90.6133 61.793H54.7539V65.793H90.6133V61.793ZM56.7539 63.793V46.9766H52.7539V63.793H56.7539ZM54.7539 48.9766H119.793V44.9766H54.7539V48.9766ZM118.027 46.0375L82.285 113.244L85.8166 115.123L121.559 47.9157L118.027 46.0375ZM84.0508 116.184H119.793V112.184H84.0508V116.184ZM117.793 114.184V131H121.793V114.184H117.793Z"/><path fill="#000" stroke="red" stroke-width="3" d="M7.5 78.6562L9.21709 70.5H166.297L168.008 78.2016L168.498 87.998L168.006 97.3432L166.718 105.5H9.21709L7.5 97.3438V88V78.6562Z"/><path fill="#fff" d="M54.0781 100H36.7344L46.2969 82.0781H36.7344V77.5938H54.0781L44.5469 95.5156H54.0781V100ZM75.9725 100H70.7537L67.4256 94.875L64.0662 100H58.8475L64.9569 91.4219L58.8475 83.1719H64.0662L67.4256 87.9688L70.7537 83.1719H75.9725L69.8475 91.4219L75.9725 100ZM95.57 86.5938L92.445 89.7344C92.2887 89.2969 92.0752 88.9062 91.8044 88.5625C91.5335 88.2083 91.2262 87.9115 90.8825 87.6719C90.5492 87.4323 90.1846 87.25 89.7887 87.125C89.3929 87 88.9867 86.9375 88.57 86.9375C87.9867 86.9375 87.4346 87.0573 86.9137 87.2969C86.4033 87.5365 85.9554 87.875 85.57 88.3125C85.195 88.7396 84.8981 89.25 84.6794 89.8438C84.4606 90.4375 84.3512 91.0938 84.3512 91.8125C84.3512 92.3958 84.4606 92.9427 84.6794 93.4531C84.8981 93.9635 85.195 94.4115 85.57 94.7969C85.9554 95.1823 86.4033 95.4844 86.9137 95.7031C87.4346 95.9219 87.9867 96.0312 88.57 96.0312C88.9867 96.0312 89.3877 95.974 89.7731 95.8594C90.1585 95.7448 90.5179 95.5833 90.8512 95.375C91.195 95.1562 91.4971 94.8958 91.7575 94.5938C92.0283 94.2812 92.2471 93.9375 92.4137 93.5625L95.5387 96.7031C95.1429 97.2656 94.6846 97.7708 94.1637 98.2188C93.6533 98.6667 93.096 99.0469 92.4919 99.3594C91.8981 99.6719 91.2679 99.9062 90.6012 100.062C89.945 100.229 89.2679 100.312 88.57 100.312C87.3929 100.312 86.2835 100.094 85.2419 99.6562C84.2106 99.2083 83.3044 98.599 82.5231 97.8281C81.7523 97.0573 81.1429 96.1562 80.695 95.125C80.2471 94.0938 80.0231 92.9896 80.0231 91.8125C80.0231 90.5312 80.2471 89.3333 80.695 88.2188C81.1429 87.1042 81.7523 86.1354 82.5231 85.3125C83.3044 84.4792 84.2106 83.8229 85.2419 83.3438C86.2835 82.8646 87.3929 82.625 88.57 82.625C89.2679 82.625 89.9502 82.7135 90.6169 82.8906C91.294 83.0677 91.9346 83.3281 92.5387 83.6719C93.1533 84.0052 93.7158 84.4167 94.2262 84.9062C94.7471 85.3958 95.195 85.9583 95.57 86.5938ZM108.23 95.9062C108.397 95.9583 108.563 95.9948 108.73 96.0156C108.897 96.026 109.063 96.0312 109.23 96.0312C109.647 96.0312 110.048 95.974 110.433 95.8594C110.819 95.7448 111.178 95.5833 111.511 95.375C111.855 95.1562 112.157 94.8958 112.417 94.5938C112.688 94.2812 112.907 93.9375 113.074 93.5625L116.199 96.7031C115.803 97.2656 115.345 97.7708 114.824 98.2188C114.313 98.6667 113.756 99.0469 113.152 99.3594C112.558 99.6719 111.928 99.9062 111.261 100.062C110.605 100.229 109.928 100.312 109.23 100.312C108.053 100.312 106.944 100.094 105.902 99.6562C104.871 99.2188 103.964 98.6094 103.183 97.8281C102.412 97.0469 101.803 96.1198 101.355 95.0469C100.907 93.9635 100.683 92.776 100.683 91.4844C100.683 90.1615 100.907 88.9531 101.355 87.8594C101.803 86.7656 102.412 85.8333 103.183 85.0625C103.964 84.2917 104.871 83.6927 105.902 83.2656C106.944 82.8385 108.053 82.625 109.23 82.625C109.928 82.625 110.61 82.7083 111.277 82.875C111.944 83.0417 112.574 83.2812 113.167 83.5938C113.772 83.9062 114.334 84.2917 114.855 84.75C115.376 85.1979 115.834 85.7031 116.23 86.2656L108.23 95.9062ZM110.417 87.1094C110.22 87.0365 110.022 86.9896 109.824 86.9688C109.636 86.9479 109.438 86.9375 109.23 86.9375C108.647 86.9375 108.095 87.0469 107.574 87.2656C107.063 87.474 106.615 87.776 106.23 88.1719C105.855 88.5677 105.558 89.0469 105.339 89.6094C105.121 90.1615 105.011 90.7865 105.011 91.4844C105.011 91.6406 105.016 91.8177 105.027 92.0156C105.048 92.2135 105.074 92.4167 105.105 92.625C105.147 92.8229 105.194 93.0156 105.246 93.2031C105.298 93.3906 105.365 93.5573 105.449 93.7031L110.417 87.1094ZM138.171 93.2812C138.171 94.2083 137.994 95.0781 137.64 95.8906C137.286 96.7031 136.801 97.4167 136.187 98.0312C135.583 98.6354 134.874 99.1146 134.062 99.4688C133.249 99.8229 132.38 100 131.452 100H122.484V95.5156H131.452C131.765 95.5156 132.057 95.4583 132.327 95.3438C132.598 95.2292 132.833 95.0729 133.031 94.875C133.239 94.6667 133.4 94.4271 133.515 94.1562C133.63 93.8854 133.687 93.5938 133.687 93.2812C133.687 92.9688 133.63 92.6771 133.515 92.4062C133.4 92.1354 133.239 91.901 133.031 91.7031C132.833 91.4948 132.598 91.3333 132.327 91.2188C132.057 91.1042 131.765 91.0469 131.452 91.0469H125.343V86.5625H131.452C131.765 86.5625 132.057 86.5052 132.327 86.3906C132.598 86.276 132.833 86.1198 133.031 85.9219C133.239 85.7135 133.4 85.474 133.515 85.2031C133.63 84.9219 133.687 84.625 133.687 84.3125C133.687 84 133.63 83.7083 133.515 83.4375C133.4 83.1667 133.239 82.9323 133.031 82.7344C132.833 82.526 132.598 82.3646 132.327 82.25C132.057 82.1354 131.765 82.0781 131.452 82.0781H122.484V77.5938H131.452C132.38 77.5938 133.249 77.7708 134.062 78.125C134.874 78.4792 135.583 78.9635 136.187 79.5781C136.801 80.1823 137.286 80.8906 137.64 81.7031C137.994 82.5156 138.171 83.3854 138.171 84.3125C138.171 85.1354 138.02 85.9375 137.718 86.7188C137.416 87.4896 136.989 88.1823 136.437 88.7969C136.989 89.4115 137.416 90.1094 137.718 90.8906C138.02 91.6615 138.171 92.4583 138.171 93.2812Z"/><path stroke="red" d="M153 53H144.5L133 64.5"/><path fill="red" d="M145.5 55V54.5H145.293L145.146 54.6464L145.5 55ZM133.646 66.1464L133.293 66.5L134 67.2071L134.354 66.8536L133.646 66.1464ZM157 54.5H145.5V55.5H157V54.5ZM145.146 54.6464L133.646 66.1464L134.354 66.8536L145.854 55.3536L145.146 54.6464Z"/><path fill="red" d="M146.5 57V56.5H146.293L146.146 56.6464L146.5 57ZM134.646 68.1464L134.293 68.5L135 69.2071L135.354 68.8536L134.646 68.1464ZM158 56.5H146.5V57.5H158V56.5ZM146.146 56.6464L134.646 68.1464L135.354 68.8536L146.854 57.3536L146.146 56.6464Z"/><path fill="#000" fill-opacity=".2" d="M146.5 57V56.5H146.293L146.146 56.6464L146.5 57ZM134.646 68.1464L134.293 68.5L135 69.2071L135.354 68.8536L134.646 68.1464ZM158 56.5H146.5V57.5H158V56.5ZM146.146 56.6464L134.646 68.1464L135.354 68.8536L146.854 57.3536L146.146 56.6464Z"/><path fill="#000" fill-opacity=".2" d="M146.5 57V56.5H146.293L146.146 56.6464L146.5 57ZM134.646 68.1464L134.293 68.5L135 69.2071L135.354 68.8536L134.646 68.1464ZM158 56.5H146.5V57.5H158V56.5ZM146.146 56.6464L134.646 68.1464L135.354 68.8536L146.854 57.3536L146.146 56.6464Z"/><path fill="#000" fill-opacity=".2" d="M146.5 57V56.5H146.293L146.146 56.6464L146.5 57ZM134.646 68.1464L134.293 68.5L135 69.2071L135.354 68.8536L134.646 68.1464ZM158 56.5H146.5V57.5H158V56.5ZM146.146 56.6464L134.646 68.1464L135.354 68.8536L146.854 57.3536L146.146 56.6464Z"/><path fill="#000" fill-opacity=".2" d="M146.5 57V56.5H146.293L146.146 56.6464L146.5 57ZM134.646 68.1464L134.293 68.5L135 69.2071L135.354 68.8536L134.646 68.1464ZM158 56.5H146.5V57.5H158V56.5ZM146.146 56.6464L134.646 68.1464L135.354 68.8536L146.854 57.3536L146.146 56.6464Z"/><path stroke="red" d="M39 113H30.5L19 124.5"/><path fill="red" d="M31.5 115V114.5H31.2929L31.1464 114.646L31.5 115ZM19.6464 126.146L19.2929 126.5L20 127.207L20.3536 126.854L19.6464 126.146ZM43 114.5H31.5V115.5H43V114.5ZM31.1464 114.646L19.6464 126.146L20.3536 126.854L31.8536 115.354L31.1464 114.646Z"/><path fill="red" d="M32.5 117V116.5H32.2929L32.1464 116.646L32.5 117ZM20.6464 128.146L20.2929 128.5L21 129.207L21.3536 128.854L20.6464 128.146ZM44 116.5H32.5V117.5H44V116.5ZM32.1464 116.646L20.6464 128.146L21.3536 128.854L32.8536 117.354L32.1464 116.646Z"/><path fill="#000" fill-opacity=".2" d="M32.5 117V116.5H32.2929L32.1464 116.646L32.5 117ZM20.6464 128.146L20.2929 128.5L21 129.207L21.3536 128.854L20.6464 128.146ZM44 116.5H32.5V117.5H44V116.5ZM32.1464 116.646L20.6464 128.146L21.3536 128.854L32.8536 117.354L32.1464 116.646Z"/><path fill="#000" fill-opacity=".2" d="M32.5 117V116.5H32.2929L32.1464 116.646L32.5 117ZM20.6464 128.146L20.2929 128.5L21 129.207L21.3536 128.854L20.6464 128.146ZM44 116.5H32.5V117.5H44V116.5ZM32.1464 116.646L20.6464 128.146L21.3536 128.854L32.8536 117.354L32.1464 116.646Z"/><path fill="#000" fill-opacity=".2" d="M32.5 117V116.5H32.2929L32.1464 116.646L32.5 117ZM20.6464 128.146L20.2929 128.5L21 129.207L21.3536 128.854L20.6464 128.146ZM44 116.5H32.5V117.5H44V116.5ZM32.1464 116.646L20.6464 128.146L21.3536 128.854L32.8536 117.354L32.1464 116.646Z"/><path fill="#000" fill-opacity=".2" d="M32.5 117V116.5H32.2929L32.1464 116.646L32.5 117ZM20.6464 128.146L20.2929 128.5L21 129.207L21.3536 128.854L20.6464 128.146ZM44 116.5H32.5V117.5H44V116.5ZM32.1464 116.646L20.6464 128.146L21.3536 128.854L32.8536 117.354L32.1464 116.646Z"/><path stroke="red" d="M104 144.955L104.098 151.429L115.009 160.081"/><path fill="red" d="M107.894 150.649L107.394 150.654L107.397 150.892L107.584 151.04L107.894 150.649ZM118.495 159.692L118.888 160.003L119.507 159.221L119.114 158.91L118.495 159.692ZM107.26 141.894L107.394 150.654L108.393 150.644L108.26 141.884L107.26 141.894ZM107.584 151.04L118.495 159.692L119.114 158.91L108.203 150.258L107.584 151.04Z"/><path fill="red" d="M105.996 149.868L105.496 149.873L105.5 150.111L105.686 150.259L105.996 149.868ZM116.598 158.911L116.99 159.223L117.609 158.441L117.216 158.129L116.598 158.911ZM105.363 141.113L105.496 149.873L106.496 149.863L106.363 141.103L105.363 141.113ZM105.686 150.259L116.598 158.911L117.216 158.129L106.305 149.477L105.686 150.259Z"/><path fill="#000" fill-opacity=".2" d="M105.996 149.868L105.496 149.873L105.5 150.111L105.686 150.259L105.996 149.868ZM116.598 158.911L116.99 159.223L117.609 158.441L117.216 158.129L116.598 158.911ZM105.363 141.113L105.496 149.873L106.496 149.863L106.363 141.103L105.363 141.113ZM105.686 150.259L116.598 158.911L117.216 158.129L106.305 149.477L105.686 150.259Z"/><path fill="#000" fill-opacity=".2" d="M105.996 149.868L105.496 149.873L105.5 150.111L105.686 150.259L105.996 149.868ZM116.598 158.911L116.99 159.223L117.609 158.441L117.216 158.129L116.598 158.911ZM105.363 141.113L105.496 149.873L106.496 149.863L106.363 141.103L105.363 141.113ZM105.686 150.259L116.598 158.911L117.216 158.129L106.305 149.477L105.686 150.259Z"/><path fill="#000" fill-opacity=".2" d="M105.996 149.868L105.496 149.873L105.5 150.111L105.686 150.259L105.996 149.868ZM116.598 158.911L116.99 159.223L117.609 158.441L117.216 158.129L116.598 158.911ZM105.363 141.113L105.496 149.873L106.496 149.863L106.363 141.103L105.363 141.113ZM105.686 150.259L116.598 158.911L117.216 158.129L106.305 149.477L105.686 150.259Z"/><path fill="#000" fill-opacity=".2" d="M105.996 149.868L105.496 149.873L105.5 150.111L105.686 150.259L105.996 149.868ZM116.598 158.911L116.99 159.223L117.609 158.441L117.216 158.129L116.598 158.911ZM105.363 141.113L105.496 149.873L106.496 149.863L106.363 141.103L105.363 141.113ZM105.686 150.259L116.598 158.911L117.216 158.129L106.305 149.477L105.686 150.259Z"/><path fill="red" d="M141 46.5L140.898 46.9895L141.5 47.1149V46.5H141ZM124.671 47.1237L124.294 47.453L124.953 48.2055L125.329 47.8763L124.671 47.1237ZM141 39L140.646 38.6464L140.5 38.7929V39H141ZM129 44L129.102 43.5105L128.858 43.4597L128.671 43.6237L129 44ZM144.146 35.1464L140.646 38.6464L141.354 39.3536L144.854 35.8536L144.146 35.1464ZM140.5 39V46.5H141.5V39H140.5ZM141.102 46.0105L129.102 43.5105L128.898 44.4895L140.898 46.9895L141.102 46.0105ZM128.671 43.6237L124.671 47.1237L125.329 47.8763L129.329 44.3763L128.671 43.6237Z"/><path fill="red" d="M132.5 31L132.737 30.5598L132.331 30.341L132.08 30.7284L132.5 31ZM122.671 42.6237L122.294 42.953L122.953 43.7055L123.329 43.3763L122.671 42.6237ZM139 34.5L138.763 34.9402L139.09 35.1166L139.354 34.8536L139 34.5ZM127 39.5L127.329 39.8763L127.382 39.8303L127.42 39.7716L127 39.5ZM142.146 30.6464L138.646 34.1464L139.354 34.8536L142.854 31.3536L142.146 30.6464ZM139.237 34.0598L132.737 30.5598L132.263 31.4402L138.763 34.9402L139.237 34.0598ZM132.08 30.7284L126.58 39.2284L127.42 39.7716L132.92 31.2716L132.08 30.7284ZM126.671 39.1237L122.671 42.6237L123.329 43.3763L127.329 39.8763L126.671 39.1237Z"/><path fill="red" d="M103 18.5V18H102.5V18.5H103ZM102.5 30V30.5H103.5V30H102.5ZM115 18.5V19H115.207L115.354 18.8536L115 18.5ZM118.146 14.6464L114.646 18.1464L115.354 18.8536L118.854 15.3536L118.146 14.6464ZM115 18H103V19H115V18ZM102.5 18.5V23.5H103.5V18.5H102.5ZM102.5 23.5V30H103.5V23.5H102.5Z"/><path fill="red" d="M38 39L37.738 39.4258L37.7474 39.4317L37.7572 39.4371L38 39ZM47.2428 44.9287L47.6715 45.186L48.186 44.3285L47.7572 44.0713L47.2428 44.9287ZM42.5 41.5L42.7572 41.0713L42.7501 41.067L42.7428 41.0629L42.5 41.5ZM31.5 35L31.762 34.5742L31.5947 34.4712L31.4019 34.5097L31.5 35ZM37.7572 39.4371L42.2572 41.9371L42.7428 41.0629L38.2428 38.5629L37.7572 39.4371ZM42.2428 41.9287L47.2428 44.9287L47.7572 44.0713L42.7572 41.0713L42.2428 41.9287ZM29.0981 35.9903L31.5981 35.4903L31.4019 34.5097L28.9019 35.0097L29.0981 35.9903ZM31.238 35.4258L37.738 39.4258L38.262 38.5742L31.762 34.5742L31.238 35.4258Z"/><path fill="red" fill-opacity=".62" d="M39 37L38.7379 37.4259L38.7428 37.4287L39 37ZM48.2572 42.9371L48.6943 43.1799L49.1799 42.3057L48.7428 42.0629L48.2572 42.9371ZM44 40L43.7428 40.4287L43.7499 40.433L43.7572 40.4371L44 40ZM32.5 33L32.2226 33.416L32.2302 33.4211L32.238 33.4258L32.5 33ZM38.7428 37.4287L43.7428 40.4287L44.2572 39.5713L39.2572 36.5713L38.7428 37.4287ZM43.7572 40.4371L48.2572 42.9371L48.7428 42.0629L44.2428 39.5629L43.7572 40.4371ZM30.7226 32.416L32.2226 33.416L32.7774 32.584L31.2774 31.584L30.7226 32.416ZM32.238 33.4258L38.738 37.4258L39.262 36.5742L32.762 32.5742L32.238 33.4258Z"/><path fill="red" fill-opacity=".32" d="M39 62.5H39.5V61.5H39V62.5ZM29.5 62.5H34.5V61.5H29.5V62.5ZM34.5 62.5H39V61.5H34.5V62.5ZM19 62.5H29.5V61.5H19V62.5Z"/><path fill="red" fill-opacity=".59" d="M36 64.5H36.5V63.5H36V64.5ZM26.5 64.5H31.5V63.5H26.5V64.5ZM31.5 64.5H36V63.5H31.5V64.5ZM16 64.5H26.5V63.5H16V64.5Z"/><path fill="red" fill-opacity=".96" d="M40 60.5H40.5V59.5H40V60.5ZM29.5 60.5H34.5V59.5H29.5V60.5ZM34.5 60.5H40V59.5H34.5V60.5ZM15 60.5H29.5V59.5H15V60.5Z"/><path fill="red" fill-opacity=".32" d="M157 112.5H157.5V111.5H157V112.5ZM147.5 112.5H152.5V111.5H147.5V112.5ZM152.5 112.5H157V111.5H152.5V112.5ZM137 112.5H147.5V111.5H137V112.5Z"/><path fill="red" fill-opacity=".59" d="M154 114.5H154.5V113.5H154V114.5ZM144.5 114.5H149.5V113.5H144.5V114.5ZM149.5 114.5H154V113.5H149.5V114.5ZM134 114.5H144.5V113.5H134V114.5Z"/><path fill="red" fill-opacity=".96" d="M158 110.5H158.5V109.5H158V110.5ZM147.5 110.5H152.5V109.5H147.5V110.5ZM152.5 110.5H158V109.5H152.5V110.5ZM133 110.5H147.5V109.5H133V110.5Z"/><path fill="#7E1717" d="M88.5 26V26.5H89.5V26H88.5ZM88.5 11V14.5H89.5V11H88.5ZM88.5 14.5V19.5H89.5V14.5H88.5ZM88.5 19.5V26H89.5V19.5H88.5Z"/><path fill="#FD0000" d="M91 12.5L90.6 12.2L90.5 12.3333V12.5H91ZM90.5 25V25.5H91.5V25H90.5ZM92.1 10.2L90.6 12.2L91.4 12.8L92.9 10.8L92.1 10.2ZM90.5 12.5V18.5H91.5V12.5H90.5ZM90.5 18.5V25H91.5V18.5H90.5Z"/><path fill="red" fill-opacity=".4" d="M105 20.5V20H104.5V20.5H105ZM104.5 28.5V29H105.5V28.5H104.5ZM117 20.5V21H117.167L117.3 20.9L117 20.5ZM118.7 18.6L116.7 20.1L117.3 20.9L119.3 19.4L118.7 18.6ZM117 20H105V21H117V20ZM104.5 20.5V25.5H105.5V20.5H104.5ZM104.5 25.5V28.5H105.5V25.5H104.5Z"/></svg>